# xmcd CD database file
#
# Track frame offsets:
#	187
#	24747
#	41220
#	67797
#	81167
#	99297
#	121020
#	155850
#	179420
#	198870
#
# Disc length: 3048 seconds
#
# Revision: 18
# Processed by: cddbd v1.5.2PL0 Copyright (c) Steve Scherf et al.
# Submitted via: CDex 1.70beta2
#
DISCID=7c0be60a
DTITLE=Art Pepper - Art Pepper meets The Rhythm Section
DYEAR=1957
DGENRE=Jazz
TTITLE0=You'd Be So Nice To Come Home To
TTITLE1=Red Pepper Blues
TTITLE2=Imagination
TTITLE3=Waltz Me Blues
TTITLE4=Straight Life
TTITLE5=Jazz Me Blues
TTITLE6=Tin Tin Deo
TTITLE7=Star Eyes
TTITLE8=Birks Works
TTITLE9=The Man I Love
EXTD=YEAR: 1957
EXTT0=
EXTT1=
EXTT2=
EXTT3=
EXTT4=
EXTT5=
EXTT6=
EXTT7=
EXTT8=
EXTT9=
PLAYORDER=
